<svg height="512" viewBox="0 0 64 64" width="512" xmlns="http://www.w3.org/2000/svg"><g id="Zombie"><path d="m49 21a12.035 12.035 0 0 0 2.761-.334 5.775 5.775 0 0 0 .239-1.666 6 6 0 0 0 -6-6 5.47 5.47 0 0 0 -1 .09 6.01 6.01 0 0 1 -.343 1.91 6.01 6.01 0 0 0 .343-1.91v-.09a6 6 0 0 0 -6-6 5.842 5.842 0 0 0 -1.867.3 11.926 11.926 0 0 0 11.867 13.7z" fill="#ee8700"/><path d="m56 27v10a5 5 0 0 0 0-10z" fill="#4e901e"/><path d="m3 32a5 5 0 0 0 5 5v-10a5 5 0 0 0 -5 5z" fill="#4e901e"/><path d="m56 27v10a24 24 0 0 1 -48 0v-10a24.006 24.006 0 0 1 24-24 23.728 23.728 0 0 1 6.17.81 12.058 12.058 0 0 0 -1.04 3.49 11.823 11.823 0 0 0 -.13 1.7 11.969 11.969 0 0 0 14.76 11.67 12.254 12.254 0 0 0 3.04-1.16 23.789 23.789 0 0 1 1.2 7.49z" fill="#5eac24"/><path d="m35.17 3.81a12.058 12.058 0 0 0 -1.04 3.49 11.823 11.823 0 0 0 -.13 1.7 12 12 0 0 0 12 12 11.4 11.4 0 0 0 1.5-.1 11.99 11.99 0 0 1 -10.5-11.9 11.823 11.823 0 0 1 .13-1.7 12.058 12.058 0 0 1 1.04-3.49 23.728 23.728 0 0 0 -6.17-.81c-.5 0-.99.02-1.479.05a23.638 23.638 0 0 1 4.649.76z" fill="#4e901e"/><path d="m54.8 19.51a12.036 12.036 0 0 1 -2.7 1.054 23.8 23.8 0 0 1 .9 6.436v10a24.005 24.005 0 0 1 -22.5 23.949c.5.03 1 .051 1.5.051a24.006 24.006 0 0 0 24-24v-10a23.789 23.789 0 0 0 -1.2-7.49z" fill="#4e901e"/><path d="m42 36a6 6 0 0 0 6-6h-12a6 6 0 0 0 6 6z" fill="#ff9811"/><path d="m28 30h-12a6 6 0 0 0 12 0z" fill="#ff9811"/><path d="m32 49c-2.989 0-5.479 1.829-5.92 4.219a21.328 21.328 0 0 0 5.92.781 21.328 21.328 0 0 0 5.92-.781c-.441-2.39-2.931-4.219-5.92-4.219z" fill="#d80027"/><path d="m32 46c-5.523 0-10 1.791-10 4 0 1.322 1.61 2.49 4.08 3.219.441-2.39 2.931-4.219 5.92-4.219s5.479 1.829 5.92 4.219c2.47-.729 4.08-1.897 4.08-3.219 0-2.209-4.477-4-10-4z" fill="#d1d3d4"/><g fill="#231f20"><path d="m17.506 19a1 1 0 0 0 .813-.416c.314-.437.651-.855.994-1.268a6.521 6.521 0 0 0 .732.583l1.4.933a1 1 0 1 0 1.11-1.664l-1.4-.933a4.507 4.507 0 0 1 -.5-.4 23.426 23.426 0 0 1 1.845-1.661 6.591 6.591 0 0 0 1.441 1.326l.5.336a1 1 0 1 0 1.11-1.664l-.5-.336a4.587 4.587 0 0 1 -.948-.85 23.258 23.258 0 0 1 2.058-1.246 6.612 6.612 0 0 0 1.78 1.76l.5.336a1 1 0 1 0 1.11-1.664l-.5-.336a4.589 4.589 0 0 1 -1.051-.986 22.494 22.494 0 0 1 2.3-.855 1 1 0 1 0 -.584-1.913 24.457 24.457 0 0 0 -2.583.969 4.593 4.593 0 0 1 -.133-1.051 1 1 0 0 0 -2 0 6.591 6.591 0 0 0 .3 1.93q-1.1.587-2.134 1.278a4.591 4.591 0 0 1 -.166-1.208 1 1 0 0 0 -2 0 6.617 6.617 0 0 0 .47 2.443 25.3 25.3 0 0 0 -1.99 1.741c-.046-.108-.1-.212-.14-.325l-.391-1.175a1 1 0 1 0 -1.9.632l.392 1.176a6.6 6.6 0 0 0 .583 1.241c-.466.541-.912 1.1-1.33 1.683a1 1 0 0 0 .812 1.584z"/><path d="m62 32a6 6 0 0 0 -5.036-5.915 24.81 24.81 0 0 0 -1.214-6.885 1 1 0 0 0 -1.434-.562 10.747 10.747 0 0 1 -1.334.618c0-.085.018-.167.018-.252a7.008 7.008 0 0 0 -7-7c-.027 0-.052.007-.079.007a7 7 0 0 0 -6.921-6.011c-.2 0-.391.03-.586.046a10.964 10.964 0 0 1 .658-1.805 1 1 0 0 0 -.642-1.4 24.754 24.754 0 0 0 -6.43-.841 25.026 25.026 0 0 0 -24.977 24.087 5.992 5.992 0 0 0 0 11.826 24.993 24.993 0 0 0 49.954 0 6 6 0 0 0 5.023-5.913zm-23-24a5 5 0 0 1 4.714 6.667 1 1 0 0 0 1.886.666 7.012 7.012 0 0 0 .312-1.325c.03 0 .058-.008.088-.008a5.006 5.006 0 0 1 5 5 4.887 4.887 0 0 1 -.072.809 10.895 10.895 0 0 1 -12.928-10.809c0-.3.025-.6.049-.9a5.01 5.01 0 0 1 .951-.1zm-35 24a4.009 4.009 0 0 1 3-3.874v7.748a4.009 4.009 0 0 1 -3-3.874zm28 28a23.026 23.026 0 0 1 -23-23v-10a23 23 0 0 1 27.792-22.495 13.012 13.012 0 0 0 17.392 16.421 22.868 22.868 0 0 1 .816 6.074v10a23.026 23.026 0 0 1 -23 23zm25-24.126v-7.748a4 4 0 0 1 0 7.748z"/><path d="m29 30a1 1 0 0 0 -1-1h-14a1 1 0 0 0 0 2h1.08a7 7 0 0 0 13.92-1zm-11.9 1h9.8a5 5 0 0 1 -9.8 0z"/><path d="m29.876 33.008a1 1 0 0 0 -.868 1.116l1 8a1 1 0 0 0 .992.876h4a1 1 0 0 0 0-2h-3.117l-.891-7.124a1 1 0 0 0 -1.116-.868z"/><path d="m50 29h-14a1 1 0 0 0 -1 1 7 7 0 0 0 13.92 1h1.08a1 1 0 0 0 0-2zm-8 6a5.008 5.008 0 0 1 -4.9-4h9.8a5.008 5.008 0 0 1 -4.9 4z"/><path d="m16 27h12a1 1 0 0 0 0-2h-12a1 1 0 0 0 0 2z"/><path d="m36 27h12a1 1 0 0 0 0-2h-12a1 1 0 0 0 0 2z"/><path d="m32 45c-5.333 0-11 1.752-11 5s5.667 5 11 5a23.632 23.632 0 0 0 4.946-.513l.054 2.534a1 1 0 0 0 1 .979h.021a1 1 0 0 0 .979-1.021l-.065-3.054c2.385-.841 4.065-2.16 4.065-3.925 0-3.248-5.667-5-11-5zm-4.626 7.526a5.124 5.124 0 0 1 4.626-2.526 5.128 5.128 0 0 1 4.63 2.525 22.807 22.807 0 0 1 -9.256 0zm11.2-.574a6.971 6.971 0 0 0 -6.574-3.952 6.971 6.971 0 0 0 -6.577 3.952c-1.552-.596-2.423-1.343-2.423-1.952 0-1.223 3.506-3 9-3s9 1.777 9 3c0 .609-.871 1.356-2.423 1.952z"/></g></g></svg>