<?xml version="1.0" encoding="iso-8859-1"?>
<!-- Generator: Adobe Illustrator 19.0.0, SVG Export Plug-In . SVG Version: 6.00 Build 0)  -->
<svg version="1.1" id="Layer_1" xmlns="http://www.w3.org/2000/svg" xmlns:xlink="http://www.w3.org/1999/xlink" x="0px" y="0px"
	 viewBox="0 0 512 512" style="enable-background:new 0 0 512 512;" xml:space="preserve">
<path style="fill:#D1AB0D;" d="M404.145,340.875v98.762l-291.653,3.714V340.875c0-61.83,38.485-114.678,92.802-135.891
	c16.439-6.426,34.319-9.943,53.018-9.943h0.014c18.586,0,36.352,3.475,52.693,9.816
	C365.505,225.985,404.145,278.918,404.145,340.875z"/>
<path style="fill:#F8CE19;" d="M404.145,384.515v55.122l-291.653,3.714v-58.836c0-61.83,38.485-114.678,92.802-135.891
	c16.439-6.426,34.319-9.943,53.018-9.943h0.014c18.586,0,36.352,3.475,52.693,9.816
	C365.505,269.625,404.145,322.558,404.145,384.515z"/>
<rect x="251.087" y="356.332" width="14.769" height="23.44"/>
<path style="fill:#EAA96E;" d="M311.018,204.857l-18.19,21.015l-34.502,39.869l-34.757-39.812l-18.275-20.945
	c16.439-6.426,34.319-9.943,53.018-9.943h0.014C276.911,195.041,294.678,198.516,311.018,204.857z"/>
<g>
	<path style="fill:#FBCB99;" d="M292.828,225.873l-34.502,39.869l-34.757-39.812c11.129-2.725,22.766-4.166,34.742-4.166h0.014
		C270.217,221.763,281.769,223.189,292.828,225.873z"/>
	<path style="fill:#FBCB99;" d="M353.147,100.743c0,1.949-0.056,3.884-0.183,5.804c-0.225,3.729-0.664,7.387-1.313,10.987
		c-1.427,7.993-3.856,15.649-7.16,22.809c-14.985,32.596-47.933,55.235-86.164,55.235c-39.078,0-72.634-23.628-87.138-57.381
		c-2.825-6.553-4.929-13.487-6.2-20.704c-0.635-3.559-1.073-7.175-1.3-10.86c-0.141-1.949-0.198-3.912-0.198-5.889
		c0-52.368,42.453-94.835,94.835-94.835C310.693,5.908,353.147,48.375,353.147,100.743z"/>
</g>
<path style="fill:#EAA96E;" d="M351.649,117.536c-1.427,7.993-3.856,15.648-7.16,22.809c-79.258,0.423-113.93-34.799-113.93-34.799
	c-18.007,17.541-41.253,27.314-59.372,32.652c-2.825-6.553-4.929-13.487-6.2-20.704c7.951-44.318,46.719-77.959,93.339-77.959
	C304.945,39.534,343.712,73.203,351.649,117.536z"/>
<path style="fill:#694B4B;" d="M353.147,100.743c0,1.949-0.056,3.884-0.183,5.804c-85.26,3.093-122.403-34.63-122.403-34.63
	c-5.339,5.197-11.129,9.716-17.117,13.629c-17.131,11.228-35.83,17.583-49.756,21.086c-0.141-1.949-0.198-3.912-0.198-5.889
	c0-52.368,42.453-94.835,94.835-94.835c33.811,0,63.497,17.71,80.275,44.36C347.822,64.885,353.147,82.186,353.147,100.743z"/>
<path style="fill:#563939;" d="M353.147,100.743c0,1.949-0.056,3.884-0.183,5.804c-85.26,3.093-122.403-34.63-122.403-34.63
	c-5.339,5.197-11.129,9.716-17.117,13.629c16.595-27.568,46.804-46.012,81.319-46.012c15.818,0,30.732,3.87,43.837,10.733
	C347.822,64.885,353.147,82.186,353.147,100.743z"/>
<polygon style="fill:#579E2E;" points="495.094,386.875 495.094,443.175 434.156,443.175 434.156,504.103 377.856,504.103 
	377.856,443.175 316.928,443.175 316.928,386.875 377.856,386.875 377.856,325.947 434.156,325.947 434.156,386.875 "/>
<path style="fill:#75BF4D;" d="M495.094,386.875v56.3h-60.938v60.928h-56.3v-60.928h-32.709l0,0
	c0-14.813,12.008-26.821,26.821-26.821h34.107v-34.107c0-14.813,12.008-26.821,26.821-26.821h1.26v31.449L495.094,386.875
	L495.094,386.875z"/>
<path d="M440.607,318.618h-28.773c-9.273-60.512-53.638-109.616-111.596-125.834c34.866-15.912,59.159-51.104,59.159-91.865
	C359.395,45.272,314.123,0,258.476,0S157.558,45.272,157.558,100.919c0,40.76,24.292,75.952,59.158,91.865
	c-65.33,18.28-113.387,78.348-113.387,149.433v107.237h206.221v0.222h62.324V512h68.734v-62.324h62.324v-68.734h-62.324v-62.324
	H440.607z M488.161,434.907h-62.324v62.324h-39.196v-62.324h-62.324v-39.196h62.324v-62.324h39.196v62.324h62.324L488.161,434.907
	L488.161,434.907z M258.476,14.769c47.503,0,86.15,38.646,86.15,86.15c0,0.362-0.009,0.724-0.014,1.085
	c-57.411-1.473-91.509-20.779-104.758-30.144c6.436-7.711,9.227-13.287,9.519-13.89l-13.288-6.445
	c-0.158,0.325-15.42,30.765-63.738,47.825C173.187,52.569,211.497,14.769,258.476,14.769z M173.415,114.588
	c26.223-8.606,44.233-20.939,56.108-31.906c13.819,10.309,50.433,32.238,113.64,34.061c-7.452,39.971-42.59,70.326-84.689,70.326
	C215.624,187.068,179.985,155.617,173.415,114.588z M300.021,208.113l-41.545,47.626l-41.544-47.626
	c13.134-4.077,27.087-6.276,41.544-6.276C272.933,201.837,286.886,204.036,300.021,208.113z M183.59,434.685V346.91h-14.769v87.776
	h-50.724v-92.468c0-57.385,34.617-106.831,84.061-128.573l48.933,56.096v66.74h14.769v-66.74l48.934-56.096
	c42.516,18.696,74.061,57.875,82.068,104.974h-24.989v62.324H348.13v-34.033h-14.769v34.033h-23.813v53.743L183.59,434.685
	L183.59,434.685z"/>
<rect x="68.933" y="195.889" width="14.769" height="16.327"/>
<rect y="303.882" width="14.769" height="16.326"/>
<rect x="59.874" y="383.872" width="14.769" height="16.327"/>
<rect x="108.249" y="122.585" width="14.769" height="16.326"/>
<rect x="37.169" y="63.984" width="14.769" height="16.326"/>
<rect x="103.326" y="22.686" width="14.769" height="16.326"/>
<rect x="437.366" y="195.889" width="14.769" height="16.327"/>
<rect x="497.231" y="303.882" width="14.769" height="16.326"/>
<rect x="398.05" y="122.585" width="14.769" height="16.326"/>
<rect x="469.13" y="63.984" width="14.769" height="16.326"/>
<rect x="402.974" y="22.686" width="14.769" height="16.326"/>
<g>
</g>
<g>
</g>
<g>
</g>
<g>
</g>
<g>
</g>
<g>
</g>
<g>
</g>
<g>
</g>
<g>
</g>
<g>
</g>
<g>
</g>
<g>
</g>
<g>
</g>
<g>
</g>
<g>
</g>
</svg>
